<svg width="34" height="34" viewBox="0 0 34 34" fill="none" xmlns="http://www.w3.org/2000/svg">
<g clip-path="url(#clip0_3635_44405)">
<path d="M11.75 19.25H11C10.6022 19.25 10.2206 19.092 9.93934 18.8107C9.65804 18.5294 9.5 18.1478 9.5 17.75V11C9.5 10.6022 9.65804 10.2206 9.93934 9.93934C10.2206 9.65804 10.6022 9.5 11 9.5H17.75C18.1478 9.5 18.5294 9.65804 18.8107 9.93934C19.092 10.2206 19.25 10.6022 19.25 11V11.75M16.25 14.75H23C23.8284 14.75 24.5 15.4216 24.5 16.25V23C24.5 23.8284 23.8284 24.5 23 24.5H16.25C15.4216 24.5 14.75 23.8284 14.75 23V16.25C14.75 15.4216 15.4216 14.75 16.25 14.75Z" stroke="#3A3A3A" stroke-width="1.5" stroke-linecap="round" stroke-linejoin="round"/>
</g>
<defs>
<clipPath id="clip0_3635_44405">
<rect width="18" height="18" fill="white" transform="translate(8 8)"/>
</clipPath>
</defs>
</svg>
