<svg width="105" height="28" viewBox="0 0 105 28" fill="none" xmlns="http://www.w3.org/2000/svg">
<g id="Color">
<g id="Logo">
<path d="M46.2316 5.91911C46.2316 6.61086 45.671 7.17173 44.9795 7.17173C44.288 7.17173 43.7276 6.61086 43.7276 5.91911C43.7276 5.22737 44.288 4.6665 44.9795 4.6665C45.671 4.6665 46.2316 5.22737 46.2316 5.91911Z" fill="#7C52FF"/>
<path d="M60.9708 19.2613V4.85213C60.9708 4.77641 61.0322 4.71496 61.1079 4.71496H62.8702C62.9461 4.71496 63.0075 4.77641 63.0075 4.85213V19.2613C63.0075 19.3373 62.9461 19.3987 62.8702 19.3987H61.1079C61.0322 19.3987 60.9708 19.3373 60.9708 19.2613Z" fill="#7C52FF"/>
<path fill-rule="evenodd" clip-rule="evenodd" d="M39.6145 4.85591V9.90725C38.7692 8.94535 37.5715 8.3526 36.1022 8.3526C33.0708 8.3526 30.6043 10.8704 30.6043 13.9652C30.6043 17.0598 33.0708 19.5777 36.1022 19.5777C37.5715 19.5777 38.7692 18.9851 39.6145 18.023V19.2653C39.6145 19.3411 39.676 19.4025 39.7517 19.4025H41.5139C41.5898 19.4025 41.6512 19.3411 41.6512 19.2653V4.85591C41.6512 4.78019 41.5898 4.71873 41.5139 4.71873H39.7517C39.676 4.71873 39.6145 4.78019 39.6145 4.85591ZM36.2148 17.5005C34.3051 17.5005 32.8387 15.9146 32.8387 13.9652C32.8387 12.016 34.3051 10.4302 36.2148 10.4302C38.1244 10.4302 39.4162 12.0158 39.4162 13.9652C39.4162 15.9144 38.1244 17.5005 36.2148 17.5005Z" fill="#7C52FF"/>
<path fill-rule="evenodd" clip-rule="evenodd" d="M70.8667 8.35113C69.3973 8.35113 68.1997 8.94367 67.3543 9.90578V8.78678C67.3543 8.71064 67.2929 8.64918 67.2172 8.64918H65.455C65.3791 8.64918 65.3176 8.71064 65.3176 8.78678V23.1958C65.3176 23.2717 65.3791 23.3332 65.455 23.3332H67.2172C67.2929 23.3332 67.3543 23.2717 67.3543 23.1958V18.0215C68.1997 18.9834 69.3973 19.576 70.8667 19.576C73.8983 19.576 76.3646 17.0582 76.3646 13.9633C76.3646 10.8689 73.8983 8.35113 70.8667 8.35113ZM70.7541 17.4986C68.8447 17.4986 67.5527 15.9127 67.5527 13.9635C67.5527 12.0142 68.8447 10.4283 70.7541 10.4283C72.6637 10.4283 74.1302 12.0142 74.1302 13.9633C74.1302 15.9125 72.6637 17.4986 70.7541 17.4986Z" fill="#7C52FF"/>
<path fill-rule="evenodd" clip-rule="evenodd" d="M56.624 8.78678V9.90725C55.7786 8.94535 54.581 8.3526 53.1117 8.3526C50.0801 8.3526 47.6136 10.8704 47.6136 13.9652C47.6136 17.0598 50.0801 19.5776 53.1117 19.5776C54.581 19.5776 55.7786 18.9851 56.624 18.023V19.2653C56.624 19.341 56.6854 19.4025 56.7611 19.4025H58.5234C58.5993 19.4025 58.6605 19.341 58.6605 19.2653V8.78678C58.6605 8.71064 58.5993 8.64919 58.5234 8.64919H56.7611C56.6854 8.64919 56.624 8.71064 56.624 8.78678ZM53.2242 17.5005C51.3146 17.5005 49.8482 15.9146 49.8482 13.9652C49.8482 12.016 51.3146 10.4301 53.2242 10.4301C55.1337 10.4301 56.4257 12.0158 56.4257 13.9652C56.4257 15.9144 55.1337 17.5005 53.2242 17.5005Z" fill="#7C52FF"/>
<path fill-rule="evenodd" clip-rule="evenodd" d="M86.4833 9.90725V8.78678C86.4833 8.71064 86.5448 8.64919 86.6204 8.64919H88.3827C88.4586 8.64919 88.52 8.71064 88.52 8.78678V19.2653C88.52 19.341 88.4586 19.4025 88.3827 19.4025H86.6204C86.5448 19.4025 86.4833 19.341 86.4833 19.2653V18.023C85.6379 18.9851 84.4403 19.5776 82.971 19.5776C79.9394 19.5776 77.4731 17.0598 77.4731 13.9652C77.4731 10.8704 79.9394 8.3526 82.971 8.3526C84.4403 8.3526 85.6379 8.94535 86.4833 9.90725ZM79.7075 13.9652C79.7075 15.9146 81.1739 17.5005 83.0836 17.5005C84.993 17.5005 86.285 15.9144 86.285 13.9652C86.285 12.0158 84.993 10.4301 83.0836 10.4301C81.1739 10.4301 79.7075 12.016 79.7075 13.9652Z" fill="#7C52FF"/>
<path fill-rule="evenodd" clip-rule="evenodd" d="M98.8897 9.90725V4.85591C98.8897 4.78019 98.9512 4.71873 99.0269 4.71873H100.789C100.865 4.71873 100.926 4.78019 100.926 4.85591V19.2653C100.926 19.3411 100.865 19.4025 100.789 19.4025H99.0269C98.9512 19.4025 98.8897 19.3411 98.8897 19.2653V18.023C98.0444 18.9851 96.8467 19.5777 95.3774 19.5777C92.346 19.5777 89.8795 17.0598 89.8795 13.9652C89.8795 10.8704 92.346 8.3526 95.3774 8.3526C96.8467 8.3526 98.0444 8.94535 98.8897 9.90725ZM92.1139 13.9652C92.1139 15.9146 93.5803 17.5005 95.49 17.5005C97.3996 17.5005 98.6914 15.9144 98.6914 13.9652C98.6914 12.0158 97.3996 10.4302 95.49 10.4302C93.5803 10.4302 92.1139 12.016 92.1139 13.9652Z" fill="#7C52FF"/>
<path d="M43.9611 8.78678V19.2613C43.9611 19.3373 44.0228 19.3987 44.0985 19.3987H45.8607C45.9364 19.3987 45.9979 19.3373 45.9979 19.2613V8.78678C45.9979 8.71064 45.9364 8.64919 45.8607 8.64919H44.0985C44.0228 8.64919 43.9611 8.71064 43.9611 8.78678Z" fill="#7C52FF"/>
<path d="M13.8915 13.1885C14.2671 10.4568 16.6086 8.35197 19.4427 8.35197C22.5384 8.35197 25.0479 10.8624 25.0479 13.9594C25.0479 17.0563 22.5384 19.5667 19.4427 19.5667C18.6688 19.5667 17.9314 19.4098 17.2609 19.1263L13.9821 22.5154C13.9295 22.5699 13.8374 22.5326 13.8374 22.4568V14.7302C13.4617 17.4621 11.1204 19.5667 8.28609 19.5667C5.19035 19.5667 2.68085 17.0563 2.68085 13.9594C2.68085 10.8624 5.19035 8.35197 8.28609 8.35197C9.06018 8.35197 9.79737 8.50907 10.4679 8.79265L13.7467 5.40334C13.7993 5.34902 13.8915 5.38635 13.8915 5.46186V13.1885Z" fill="#7C52FF"/>
</g>
</g>
</svg>
