<svg width="34" height="35" viewBox="0 0 34 35" fill="none" xmlns="http://www.w3.org/2000/svg">
<path d="M17 18.25C17.4142 18.25 17.75 17.9142 17.75 17.5C17.75 17.0858 17.4142 16.75 17 16.75C16.5858 16.75 16.25 17.0858 16.25 17.5C16.25 17.9142 16.5858 18.25 17 18.25Z" stroke="#3A3A3A" stroke-width="1.5" stroke-linecap="round" stroke-linejoin="round"/>
<path d="M17 13C17.4142 13 17.75 12.6642 17.75 12.25C17.75 11.8358 17.4142 11.5 17 11.5C16.5858 11.5 16.25 11.8358 16.25 12.25C16.25 12.6642 16.5858 13 17 13Z" stroke="#3A3A3A" stroke-width="1.5" stroke-linecap="round" stroke-linejoin="round"/>
<path d="M17 23.5C17.4142 23.5 17.75 23.1642 17.75 22.75C17.75 22.3358 17.4142 22 17 22C16.5858 22 16.25 22.3358 16.25 22.75C16.25 23.1642 16.5858 23.5 17 23.5Z" stroke="#3A3A3A" stroke-width="1.5" stroke-linecap="round" stroke-linejoin="round"/>
</svg>
