<svg width="34" height="34" viewBox="0 0 34 34" fill="none" xmlns="http://www.w3.org/2000/svg">
<path d="M14.4425 18.1325L19.565 21.1175M19.5575 12.8825L14.4425 15.8675M23.75 11.75C23.75 12.9926 22.7426 14 21.5 14C20.2574 14 19.25 12.9926 19.25 11.75C19.25 10.5074 20.2574 9.5 21.5 9.5C22.7426 9.5 23.75 10.5074 23.75 11.75ZM14.75 17C14.75 18.2426 13.7426 19.25 12.5 19.25C11.2574 19.25 10.25 18.2426 10.25 17C10.25 15.7574 11.2574 14.75 12.5 14.75C13.7426 14.75 14.75 15.7574 14.75 17ZM23.75 22.25C23.75 23.4926 22.7426 24.5 21.5 24.5C20.2574 24.5 19.25 23.4926 19.25 22.25C19.25 21.0074 20.2574 20 21.5 20C22.7426 20 23.75 21.0074 23.75 22.25Z" stroke="#3A3A3A" stroke-width="1.5" stroke-linecap="round" stroke-linejoin="round"/>
</svg>
